<svg xmlns="http://www.w3.org/2000/svg" width="300" viewBox="0 0 300 300" height="300" version="1.0"><defs><clipPath id="a"><path d="M 43 46 L 257 46 L 257 254.625 L 43 254.625 Z M 43 46"/></clipPath></defs><path fill="#FFF" d="M-30 -30H330V330H-30z"/><path fill="#FFF" d="M-30 -30H330V330H-30z"/><path fill="#FFF" d="M-30 -30H330V330H-30z"/><g clip-path="url(#a)"><path fill="#262621" d="M 256.742188 162.570312 C 256.292969 158.980469 256.292969 155.386719 255.398438 151.796875 C 254.050781 143.714844 251.808594 136.082031 250.011719 128.449219 C 248.667969 123.960938 244.179688 112.734375 238.792969 112.285156 C 231.613281 111.390625 226.675781 127.101562 223.085938 131.59375 C 216.355469 139.226562 208.277344 145.960938 198.40625 149.101562 C 188.085938 152.246094 145.902344 155.835938 159.367188 134.734375 C 174.625 125.308594 188.535156 99.714844 182.25 82.207031 C 174.625 62.003906 153.980469 50.777344 133.789062 47.636719 C 110.453125 44.492188 88.015625 51.226562 77.246094 73.675781 C 76.796875 74.125 76.796875 75.023438 76.347656 75.472656 C 70.515625 75.472656 64.230469 78.613281 59.296875 80.410156 C 54.808594 82.207031 43.589844 85.347656 43.589844 91.632812 C 43.589844 96.574219 50.320312 100.613281 54.359375 102.859375 C 54.808594 103.308594 55.707031 103.757812 56.15625 103.757812 C 61.539062 106.449219 68.269531 109.144531 74.105469 107.347656 C 74.105469 107.347656 74.554688 106.898438 74.554688 106.898438 C 76.347656 111.390625 79.039062 114.980469 80.835938 119.917969 C 83.976562 128.449219 83.976562 136.980469 77.695312 144.164062 C 76.796875 145.0625 75.898438 145.960938 74.554688 146.855469 C 73.207031 147.753906 71.859375 148.203125 70.515625 148.652344 C 34.613281 161.222656 36.859375 215.996094 61.988281 237.996094 C 80.835938 254.160156 99.683594 255.058594 123.464844 254.609375 C 167.890625 254.160156 231.164062 254.609375 250.910156 205.222656 C 255.398438 191.304688 257.640625 176.9375 256.742188 162.570312 Z M 72.308594 89.839844 C 72.308594 89.839844 71.859375 90.289062 71.859375 90.289062 C 70.515625 93.429688 68.71875 96.574219 67.375 99.714844 C 66.925781 99.714844 66.925781 99.265625 66.476562 99.265625 C 68.269531 95.226562 70.515625 91.183594 72.757812 87.59375 C 72.308594 88.492188 72.308594 89.390625 72.308594 89.839844 Z M 56.601562 93.878906 C 55.707031 93.429688 54.808594 92.53125 53.910156 92.082031 C 55.257812 91.183594 57.050781 90.289062 58.847656 89.839844 C 57.949219 91.183594 57.5 92.53125 56.601562 93.878906 Z M 60.195312 96.125 C 61.539062 92.980469 63.335938 89.839844 65.578125 87.144531 C 66.476562 86.695312 67.375 86.695312 68.269531 86.246094 C 66.476562 89.839844 64.230469 93.878906 62.4375 97.472656 C 61.988281 97.023438 61.089844 96.574219 60.195312 96.125 Z M 249.113281 186.367188 C 246.871094 195.792969 243.28125 205.671875 237.449219 213.304688 C 230.265625 223.179688 219.945312 231.261719 208.277344 234.40625 C 206.484375 234.855469 204.242188 235.304688 201.996094 235.753906 C 170.585938 239.792969 139.621094 244.730469 107.761719 243.382812 C 83.976562 242.488281 61.988281 234.855469 52.117188 209.710938 C 47.628906 198.9375 49.871094 187.714844 55.707031 177.835938 C 60.195312 169.753906 65.578125 161.222656 72.757812 155.386719 C 79.9375 149.550781 89.808594 146.40625 93.402344 136.980469 C 97.886719 125.753906 89.363281 120.367188 85.324219 110.941406 C 79.9375 99.265625 79.488281 86.695312 85.773438 75.023438 C 92.953125 61.554688 108.65625 52.574219 123.464844 52.125 C 140.519531 51.675781 157.121094 62.902344 167.890625 75.472656 C 175.519531 84.449219 178.214844 95.675781 174.175781 106.898438 C 172.378906 112.285156 168.789062 116.777344 165.199219 120.816406 C 159.367188 127.101562 150.839844 132.9375 149.492188 142.367188 C 147.699219 155.835938 163.40625 156.285156 172.828125 156.734375 C 201.996094 158.082031 224.882812 146.855469 237.894531 120.816406 C 235.203125 126.203125 242.382812 138.328125 244.179688 143.265625 C 247.769531 157.183594 251.808594 172.449219 249.113281 186.367188 Z M 249.113281 186.367188"/></g><path fill="#262621" d="M 105.964844 76.371094 C 105.964844 76.371094 105.515625 76.371094 105.515625 76.820312 C 102.375 78.164062 100.132812 81.757812 99.683594 84.898438 C 98.785156 90.289062 102.375 94.777344 107.761719 94.777344 C 112.695312 94.777344 116.285156 89.390625 115.835938 84.898438 C 115.390625 80.859375 110.453125 74.574219 105.964844 76.371094 Z M 107.761719 89.839844 C 104.617188 89.839844 103.722656 86.695312 104.171875 84.449219 C 104.617188 82.65625 105.515625 81.308594 106.414062 80.410156 C 108.207031 81.308594 110.003906 81.757812 110.902344 83.554688 C 112.695312 86.246094 111.351562 89.839844 107.761719 89.839844 Z M 107.761719 89.839844"/></svg>